:SAMPLES-PER-SECOND 30
:FRAME-RANGE 1-2643
:FULLY-SPECIFIED
:DEGREES
331
root  -24.6058 34.9779 79.2263 -133.471 -78.1097 138.839
RightUpLeg  -13.5318 -11.0321 1.83757
RightLeg  70.9077 -3.28752 -11.3768
RightFoot  -11.9125 -0.0617456 3.82418
RightToes  7.56698e-010 0 -3.6325e-017
Spine  16.376 7.05921 -1.17666
Spine1  -3.5312 7.91384 -6.80458
HEad  -10.5448 -38.3417 17.3549
LeftShoulder1  -0.71871 8.25466 -7.46253
LeftArm  -7.83878 60.1485 -11.5239
LeftForeArm  6.49196 -39.7855 -8.9185
LeftHand  0.224216 -0.392153 -4.49081
RightShoulder  6.1939 12.2361 33.4211
RightArm  -1.70925 7.15419 10.1128
RightForeArm  14.2896 49.4279 12.0517
RightHand  -0.19377 1.00685 -3.62959
LeftUpLeg  -36.598 11.2881 4.56312
LeftLeg  19.3645 -7.92274 -2.76171
LeftFoot  1.3047 3.08774 -27.454
LeftToes  1.48244e-010 1.61973e-010 3.308e-011
332
root  -27.2392 34.1298 80.1933 -144.597 -74.7568 147.989
RightUpLeg  -21.36 -10.6458 -0.585669
RightLeg  82.1306 -1.47003 -16.4619
RightFoot  -14.263 -0.0685171 1.09967
RightToes  7.56698e-010 0 -3.6325e-017
Spine  21.6612 6.01538 -1.40693
Spine1  -5.04675 6.55571 -5.41358
HEad  -9.66642 -34.9368 14.8064
LeftShoulder1  -0.603081 6.3539 -14.1536
LeftArm  -7.90713 53.4018 -16.0576
LeftForeArm  3.19626 -36.5033 -8.11235
LeftHand  0.266802 -0.783516 -4.96592
RightShoulder  8.06687 15.3932 36.6719
RightArm  -4.49388 12.5955 8.82734
RightForeArm  15.1264 49.4479 11.9952
RightHand  -0.145771 1.56289 -2.58305
LeftUpLeg  -38.5322 8.60059 5.01714
LeftLeg  35.0808 -6.16741 -4.26503
LeftFoot  -1.36644 1.76929 -20.0034
LeftToes  1.48244e-010 1.61973e-010 3.308e-011
333
root  -29.8516 33.4532 80.869 -139.479 -71.5937 139.71
RightUpLeg  -29.5276 -11.107 -5.30797
RightLeg  87.1672 0.0413661 -16.1876
RightFoot  -18.0461 -0.127937 -0.0998631
RightToes  7.56698e-010 0 -3.6325e-017
Spine  25.4162 4.92155 -4.98697
Spine1  -3.30006 4.35937 -2.89913
HEad  -11.8571 -32.7218 15.3774
LeftShoulder1  0.103341 3.14565 -22.4794
LeftArm  -0.871962 36.7492 -17.3752
LeftForeArm  -2.34692 -28.9774 -6.40743
LeftHand  0.257486 -0.861413 -4.72146
RightShoulder  10.1303 18.2696 40.3154
RightArm  -6.21841 17.8094 8.40799
RightForeArm  14.7852 47.4535 11.1532
RightHand  -0.198218 0.943655 -3.74179
LeftUpLeg  -36.6747 9.73847 -0.172459
LeftLeg  45.848 -5.67691 -5.80644
LeftFoot  -8.87946 0.396216 -15.889
LeftToes  1.48244e-010 1.61973e-010 3.308e-011
334
root  -32.5388 33.291 81.3897 -142.198 -69.8045 141.069
RightUpLeg  -38.1124 -11.158 -4.71028
RightLeg  83.3985 -1.19588 -17.645
RightFoot  -18.4128 -0.0701501 0.881445
RightToes  7.56698e-010 0 -3.6325e-017
Spine  26.485 2.99515 -3.50134
Spine1  0.233643 3.44549 -4.93834
HEad  -12.9209 -33.1299 17.7786
LeftShoulder1  0.920538 0.517583 -24.5913
LeftArm  10.7392 17.9984 -22.5434
LeftForeArm  -5.396 -21.3571 -6.17508
LeftHand  0.205998 -0.594728 -3.95946
RightShoulder  12.6896 22.3072 42.7098
RightArm  -5.47127 19.1245 8.78193
RightForeArm  13.8133 43.6058 9.73629
RightHand  -0.208354 1.47914 -3.6675
LeftUpLeg  -33.0788 11.2131 -2.10184
LeftLeg  51.4934 -4.99323 -6.21273
LeftFoot  -16.0086 -0.421438 -12.6452
LeftToes  1.48244e-010 1.61973e-010 3.308e-011
335
root  -35.1394 33.5622 81.7911 -145.404 -69.9064 144.935
RightUpLeg  -44.9854 -11.8985 -0.692244
RightLeg  71.6981 -5.26018 -18.1887
RightFoot  -19.7126 -0.0379114 1.30538
RightToes  7.56698e-010 0 -3.6325e-017
Spine  27.5805 1.43742 -2.07999
Spine1  0.636642 1.36457 -0.830513
HEad  -13.0463 -33.8442 18.8203
LeftShoulder1  1.23285 -0.750157 -22.6656
LeftArm  12.0455 7.25837 -30.5942
LeftForeArm  6.17588 -23.7856 -4.76444
LeftHand  0.111948 -1.42562 -1.78369
RightShoulder  13.8046 24.0844 43.4773
RightArm  0.736822 20.6935 11.2372
RightForeArm  11.329 36.9748 7.76186
RightHand  0.0437344 3.04321 0.374211
LeftUpLeg  -29.7578 10.1573 -2.28294
LeftLeg  53.2069 -3.70285 -4.81315
LeftFoot  -21.023 -0.886567 -11.9179
LeftToes  1.48244e-010 1.61973e-010 3.308e-011
336
root  -37.593 34.0713 82.0896 -150.832 -69.2902 152.658
RightUpLeg  -48.482 -10.0433 4.70591
RightLeg  52.1009 -11.1444 -15.2799
RightFoot  -18.7899 0.00260201 1.99432
RightToes  7.56698e-010 0 -3.6325e-017
Spine  28.0272 0.996987 0.447183
Spine1  0.528358 0.414005 3.09323
HEad  -14.8741 -35.0684 19.8841
LeftShoulder1  1.35401 -1.23755 -22.222
LeftArm  0.308132 1.7439 -34.642
LeftForeArm  25.2514 -36.6782 -6.81939
LeftHand  -0.0197651 -0.649734 0.450936
RightShoulder  13.6312 23.525 43.8554
RightArm  7.93134 18.9541 12.9956
RightForeArm  5.825 33.8763 7.22188
RightHand  0.0898541 3.04327 1.0094
LeftUpLeg  -28.2579 10.8514 -1.63538
LeftLeg  54.4425 -2.7656 -3.66132
LeftFoot  -22.1682 -1.1527 -13.5103
LeftToes  1.48244e-010 1.61973e-010 3.308e-011
337
root  -40.3156 34.326 82.1184 -155.033 -66.2862 158.367
RightUpLeg  -47.3301 -8.34835 9.62165
RightLeg  30.7234 -11.169 -7.32125
RightFoot  -16.21 0.137079 5.80672
RightToes  7.56698e-010 0 -3.6325e-017
Spine  28.0429 0.850851 2.35168
Spine1  0.798415 0.726039 2.79798
HEad  -15.468 -37.1738 20.9952
LeftShoulder1  1.35658 -1.095 -23.2153
LeftArm  -8.12716 1.25535 -34.7933
LeftForeArm  28.2096 -59.5889 -16.7229
LeftHand  0.0275155 2.08573 -1.39659
RightShoulder  13.1056 21.3768 45.9541
RightArm  13.8516 15.6143 13.7973
RightForeArm  0.460405 32.0082 7.02877
RightHand  0.0389833 2.56873 0.365069
LeftUpLeg  -27.6006 14.1971 -1.38175
LeftLeg  59.3796 -2.68242 -4.33435
LeftFoot  -19.0597 -1.11516 -18.0838
LeftToes  1.48244e-010 1.61973e-010 3.308e-011
338
root  -43.313 34.1151 81.9044 -156.979 -63.5593 159.488
RightUpLeg  -44.3935 -9.71616 13.4294
RightLeg  21.5434 -6.34642 -2.97304
RightFoot  -13.157 0.0827455 10.8447
RightToes  7.56698e-010 0 -3.6325e-017
Spine  28.2275 0.698731 2.70472
Spine1  0.908429 0.646862 2.8504
HEad  -13.0227 -39.2408 19.6657
LeftShoulder1  1.22867 -0.67403 -23.1168
LeftArm  -12.9261 4.6233 -37.4112
LeftForeArm  52.6865 -77.0447 -49.9034
LeftHand  0.0477826 3.22152 -3.64612
RightShoulder  11.9295 18.2513 47.9498
RightArm  20.3086 10.7107 13.7428
RightForeArm  -2.79951 28.9088 6.41908
RightHand  -0.0253547 2.63872 -0.574994
LeftUpLeg  -27.0054 16.9481 -1.13155
LeftLeg  67.1657 -2.23344 -5.09537
LeftFoot  -8.28951 0.669651 -23.0079
LeftToes  1.48244e-010 1.61973e-010 3.308e-011
339
root  -46.3925 33.3271 81.6544 -157.15 -62.2212 157.504
RightUpLeg  -41.526 -6.73916 10.6717
RightLeg  26.2454 -9.93741 -5.52074
RightFoot  -12.7966 0.0264931 8.92253
RightToes  7.56698e-010 0 -3.6325e-017
Spine  27.4654 0.243144 2.87708
Spine1  1.28214 -0.0996893 3.92911
HEad  -10.0696 -41.444 16.5116
LeftShoulder1  1.11551 -0.304781 -22.9863
LeftArm  -10.304 9.411 -38.5151
LeftForeArm  96.3998 -80.1839 -90.4234
LeftHand  0.0196652 4.14986 -4.315
RightShoulder  9.29319 13.4841 47.8899
RightArm  28.9204 5.41624 14.0849
RightForeArm  -7.25428 24.6516 5.64164
RightHand  -0.0523295 2.95343 -0.952529
LeftUpLeg  -27.2774 15.0459 -0.541947
LeftLeg  76.3142 -2.48424 -10.5767
LeftFoot  6.72005 3.49724 -22.0231
LeftToes  1.48244e-010 1.61973e-010 3.308e-011
340
root  -49.1936 32.3921 81.504 -159.854 -61.197 158.494
RightUpLeg  -46.0093 -5.53563 11.9866
RightLeg  41.8873 -11.9295 -11.536
RightFoot  -6.31992 1.0393 -24.2508
RightToes  7.56698e-010 0 -3.6325e-017
Spine  28.6475 0.183578 5.976
Spine1  0.56 -0.0878396 5.22602
HEad  -9.5596 -44.5254 14.5987
LeftShoulder1  1.11733 -0.281425 -23.2275
LeftArm  -6.47455 12.8703 -39.3297
LeftForeArm  70.8322 -79.0718 -62.4322
LeftHand  0.100688 2.81103 -5.39159
RightShoulder  5.60579 7.12655 46.1701
RightArm  29.9603 1.01654 14.2083
RightForeArm  -6.29644 19.1107 8.25948
RightHand  -0.122724 3.09585 -1.91054
LeftUpLeg  -28.7926 11.1731 1.46374
LeftLeg  84.3322 -0.665836 -6.31832
LeftFoot  9.32018 3.21665 -17.8371
LeftToes  1.48244e-010 1.61973e-010 3.308e-011
341
root  -52.0876 32.0287 81.1216 -164.944 -58.8051 161.226
RightUpLeg  -44.2659 -1.81779 10.2376
RightLeg  53.8551 -12.4787 -18.031
RightFoot  -12.5474 -0.309447 -21.1484
RightToes  7.56698e-010 0 -3.6325e-017
Spine  29.49 -0.403734 8.48263
Spine1  1.60158 0.788426 3.9196
HEad  -14.5379 -45.6044 16.0971
LeftShoulder1  1.17084 -0.315434 -24.4236
LeftArm  -4.52331 14.2762 -38.6829
LeftForeArm  38.6012 -69.4418 -26.6918
LeftHand  0.172042 0.946999 -4.68979
RightShoulder  4.77409 5.49361 46.476
RightArm  14.1667 -1.95585 10.2728
RightForeArm  5.34595 10.4379 13.8907
RightHand  -0.210304 2.73288 -3.2211
LeftUpLeg  -29.8982 7.33762 4.44911
LeftLeg  88.1093 -0.26368 2.55715
LeftFoot  6.43381 1.48036 -9.70092
LeftToes  1.48244e-010 1.61973e-010 3.308e-011
342
root  -54.8596 32.0256 80.4658 -167.555 -55.3222 162.755
RightUpLeg  -40.7939 2.22926 8.90181
RightLeg  60.338 -11.2178 -20.8042
RightFoot  -18.9386 -1.29806 -17.4771
RightToes  7.56698e-010 0 -3.6325e-017
Spine  29.5094 -0.0223576 7.4909
Spine1  3.29406 0.595994 5.16394
HEad  -16.3852 -44.9691 17.9178
LeftShoulder1  1.02337 0.189097 -24.6452
LeftArm  -1.41993 14.9099 -39.0225
LeftForeArm  29.0971 -50.8843 -11.5329
LeftHand  0.0727916 -0.619365 -1.35069
RightShoulder  4.739 5.24599 47.4622
RightArm  -0.492579 -2.09014 6.64574
RightForeArm  14.1635 0.36409 15.9658
RightHand  -0.18742 2.14831 -3.07167
LeftUpLeg  -32.8743 4.10623 6.17795
LeftLeg  86.4573 -0.0940277 6.01639
LeftFoot  1.68777 0.354159 -3.19132
LeftToes  1.48244e-010 1.61973e-010 3.308e-011
343
root  -57.371 32.3182 79.8013 -167.95 -50.4569 162.809
RightUpLeg  -37.0181 6.69806 6.6614
RightLeg  63.4751 -10.6368 -22.508
RightFoot  -23.444 -1.72071 -14.6475
RightToes  7.56698e-010 0 -3.6325e-017
Spine  29.4452 0.355641 5.6303
Spine1  2.56668 0.806418 3.73529
HEad  -14.5587 -44.2885 17.3653
LeftShoulder1  0.882785 0.702594 -25.3074
LeftArm  3.99491 17.1781 -37.5076
LeftForeArm  24.6666 -35.9614 -6.65922
LeftHand  0.0711345 -1.85043 -0.983487
RightShoulder  3.63561 3.24418 47.2355
RightArm  -1.13328 -3.36853 6.02493
RightForeArm  11.0492 1.18872 15.8646
RightHand  -0.157449 1.6168 -2.76175
LeftUpLeg  -36.4556 3.04323 6.12755
LeftLeg  79.9989 0.199608 3.27763
LeftFoot  -1.86614 0.365362 -4.27309
LeftToes  1.48244e-010 1.61973e-010 3.308e-011
344
root  -59.6254 32.8842 79.1008 -167.848 -45.388 163.016
RightUpLeg  -32.9958 9.32447 4.41218
RightLeg  63.3377 -9.83347 -20.8889
RightFoot  -26.9409 -1.79685 -11.7388
RightToes  7.56698e-010 0 -3.6325e-017
Spine  29.0082 0.425557 2.98876
Spine1  2.34053 0.393472 2.15613
HEad  -14.4422 -43.1565 17.3762
LeftShoulder1  0.825988 0.955993 -26.2445
LeftArm  4.80518 24.8669 -34.5433
LeftForeArm  21.4753 -32.8444 -6.03441
LeftHand  0.221568 -3.62241 -2.60403
RightShoulder  2.04472 0.462321 45.2515
RightArm  13.7001 -5.38553 9.21618
RightForeArm  -2.31619 11.751 13.4413
RightHand  -0.091552 1.92818 -1.62238
LeftUpLeg  -38.9876 3.15039 5.77607
LeftLeg  68.3312 -0.290134 -0.0283277
LeftFoot  -4.54513 0.514694 -8.20056
LeftToes  1.48244e-010 1.61973e-010 3.308e-011
345
root  -61.6852 33.5181 78.3566 -167.237 -40.7135 162.714
RightUpLeg  -29.2275 9.92475 1.64656
RightLeg  61.7947 -8.67739 -17.5133
RightFoot  -29.4264 -1.58214 -8.66733
RightToes  7.56698e-010 0 -3.6325e-017
Spine  28.5135 0.727417 -0.680042
Spine1  2.1981 -0.0400731 1.22683
HEad  -14.2613 -42.5413 17.1968
LeftShoulder1  0.685054 1.3906 -26.2363
LeftArm  1.6971 33.2919 -33.8339
LeftForeArm  18.9322 -35.0105 -6.74754
LeftHand  0.182943 -2.4095 -2.53569
RightShoulder  0.823945 -1.8325 43.6258
RightArm  33.6378 -7.98335 11.1149
RightForeArm  -15.648 22.7685 6.02802
RightHand  -0.0522336 2.87813 -0.954193
LeftUpLeg  -39.2577 3.35829 4.9722
LeftLeg  52.3788 -0.813059 -0.663934
LeftFoot  -5.3279 0.61658 -11.1058
LeftToes  1.48244e-010 1.61973e-010 3.308e-011
